<svg width="24" height="24" viewBox="0 0 24 24" fill="none" xmlns="http://www.w3.org/2000/svg">
<path d="M16.9994 16C17.9844 16.0011 18.9352 15.6388 19.6696 14.9823C20.404 14.3259 20.8703 13.4216 20.9793 12.4427C21.0883 11.4638 20.8323 10.479 20.2603 9.67714C19.6883 8.87526 18.8405 8.31263 17.8794 8.09703C18.1575 6.80012 17.909 5.44586 17.1886 4.33218C16.4682 3.21849 15.3348 2.43661 14.0379 2.15853C12.741 1.88045 11.3868 2.12895 10.2731 2.84937C9.1594 3.56979 8.37752 4.70312 8.09944 6.00003H7.99944C6.75949 5.99878 5.5633 6.45831 4.6431 7.2894C3.72291 8.12049 3.14434 9.26386 3.01973 10.4975C2.89511 11.7312 3.23334 12.9672 3.96875 13.9655C4.70416 14.9638 5.78428 15.6533 6.99944 15.9M8.99944 13L11.9994 10M11.9994 10L14.9994 13M11.9994 10V22" stroke="#2A9D8F" stroke-width="2" stroke-linecap="round" stroke-linejoin="round"/>
</svg>
