<svg width="17" height="16" viewBox="0 0 17 16" fill="none" xmlns="http://www.w3.org/2000/svg">
<g clip-path="url(#clip0_1485_41069)">
<path d="M4.83268 4.00016V2.00016C4.83268 1.82335 4.90292 1.65378 5.02794 1.52876C5.15297 1.40373 5.32254 1.3335 5.49935 1.3335H13.4993C13.6762 1.3335 13.8457 1.40373 13.9708 1.52876C14.0958 1.65378 14.166 1.82335 14.166 2.00016V11.3335C14.166 11.5103 14.0958 11.6799 13.9708 11.8049C13.8457 11.9299 13.6762 12.0002 13.4993 12.0002H11.4993V14.0002C11.4993 14.3682 11.1993 14.6668 10.828 14.6668H2.83735C2.74943 14.6674 2.66228 14.6505 2.5809 14.6172C2.49951 14.584 2.4255 14.535 2.36312 14.473C2.30074 14.4111 2.25121 14.3374 2.21739 14.2563C2.18356 14.1751 2.1661 14.0881 2.16602 14.0002L2.16802 4.66683C2.16802 4.29883 2.46802 4.00016 2.83935 4.00016H4.83268ZM3.50135 5.3335L3.49935 13.3335H10.166V5.3335H3.50135ZM6.16602 4.00016H11.4993V10.6668H12.8327V2.66683H6.16602V4.00016Z" fill="#2A9D8F"/>
</g>
<defs>
<clipPath id="clip0_1485_41069">
<rect width="16" height="16" fill="white" transform="translate(0.166016)"/>
</clipPath>
</defs>
</svg>
