<svg width="146" height="24" viewBox="0 0 146 24" fill="none" xmlns="http://www.w3.org/2000/svg">
<g clip-path="url(#clip0_1485_41049)">
<path fill-rule="evenodd" clip-rule="evenodd" d="M19.6 12.2271C19.6 11.518 19.5364 10.8362 19.4182 10.1816H10V14.0498H15.3818C15.15 15.2998 14.4455 16.3589 13.3864 17.068V19.5771H16.6182C18.5091 17.8362 19.6 15.2725 19.6 12.2271Z" fill="#4285F4"/>
<path fill-rule="evenodd" clip-rule="evenodd" d="M10.0008 21.9999C12.7008 21.9999 14.9645 21.1044 16.619 19.5772L13.3872 17.0681C12.4917 17.6681 11.3463 18.0226 10.0008 18.0226C7.39627 18.0226 5.19173 16.2635 4.40536 13.8999H1.06445V16.4908C2.70991 19.759 6.09173 21.9999 10.0008 21.9999Z" fill="#34A853"/>
<path fill-rule="evenodd" clip-rule="evenodd" d="M4.40455 13.9002C4.20455 13.3002 4.09091 12.6593 4.09091 12.0002C4.09091 11.3411 4.20455 10.7002 4.40455 10.1002V7.50928H1.06364C0.386364 8.85928 0 10.3866 0 12.0002C0 13.6138 0.386364 15.1411 1.06364 16.4911L4.40455 13.9002Z" fill="#FBBC05"/>
<path fill-rule="evenodd" clip-rule="evenodd" d="M10.0008 5.97727C11.469 5.97727 12.7872 6.48182 13.8235 7.47273L16.6917 4.60455C14.9599 2.99091 12.6963 2 10.0008 2C6.09173 2 2.70991 4.24091 1.06445 7.50909L4.40536 10.1C5.19173 7.73636 7.39627 5.97727 10.0008 5.97727Z" fill="#EA4335"/>
</g>
<path d="M37.248 10.08C36.96 9.52533 36.56 9.10933 36.048 8.832C35.536 8.544 34.944 8.4 34.272 8.4C33.536 8.4 32.88 8.56533 32.304 8.896C31.728 9.22667 31.2747 9.696 30.944 10.304C30.624 10.912 30.464 11.616 30.464 12.416C30.464 13.216 30.624 13.9253 30.944 14.544C31.2747 15.152 31.728 15.6213 32.304 15.952C32.88 16.2827 33.536 16.448 34.272 16.448C35.264 16.448 36.0693 16.1707 36.688 15.616C37.3067 15.0613 37.6853 14.3093 37.824 13.36H33.648V11.904H39.776V13.328C39.6587 14.192 39.3493 14.9867 38.848 15.712C38.3573 16.4373 37.712 17.0187 36.912 17.456C36.1227 17.8827 35.2427 18.096 34.272 18.096C33.2267 18.096 32.272 17.856 31.408 17.376C30.544 16.8853 29.856 16.208 29.344 15.344C28.8427 14.48 28.592 13.504 28.592 12.416C28.592 11.328 28.8427 10.352 29.344 9.488C29.856 8.624 30.544 7.952 31.408 7.472C32.2827 6.98133 33.2373 6.736 34.272 6.736C35.456 6.736 36.5067 7.02933 37.424 7.616C38.352 8.192 39.024 9.01333 39.44 10.08H37.248ZM45.239 18.144C44.407 18.144 43.655 17.9573 42.983 17.584C42.311 17.2 41.783 16.6667 41.399 15.984C41.015 15.2907 40.823 14.4907 40.823 13.584C40.823 12.688 41.0203 11.8933 41.415 11.2C41.8097 10.5067 42.3483 9.97333 43.031 9.6C43.7137 9.22667 44.4763 9.04 45.319 9.04C46.1617 9.04 46.9243 9.22667 47.607 9.6C48.2897 9.97333 48.8283 10.5067 49.223 11.2C49.6177 11.8933 49.815 12.688 49.815 13.584C49.815 14.48 49.6123 15.2747 49.207 15.968C48.8017 16.6613 48.247 17.2 47.543 17.584C46.8497 17.9573 46.0817 18.144 45.239 18.144ZM45.239 16.56C45.7083 16.56 46.1457 16.448 46.551 16.224C46.967 16 47.303 15.664 47.559 15.216C47.815 14.768 47.943 14.224 47.943 13.584C47.943 12.944 47.8203 12.4053 47.575 11.968C47.3297 11.52 47.0043 11.184 46.599 10.96C46.1937 10.736 45.7563 10.624 45.287 10.624C44.8177 10.624 44.3803 10.736 43.975 10.96C43.5803 11.184 43.2657 11.52 43.031 11.968C42.7963 12.4053 42.679 12.944 42.679 13.584C42.679 14.5333 42.919 15.2693 43.399 15.792C43.8897 16.304 44.503 16.56 45.239 16.56ZM55.2821 18.144C54.4501 18.144 53.6981 17.9573 53.0261 17.584C52.3541 17.2 51.8261 16.6667 51.4421 15.984C51.0581 15.2907 50.8661 14.4907 50.8661 13.584C50.8661 12.688 51.0635 11.8933 51.4581 11.2C51.8528 10.5067 52.3915 9.97333 53.0741 9.6C53.7568 9.22667 54.5195 9.04 55.3621 9.04C56.2048 9.04 56.9675 9.22667 57.6501 9.6C58.3328 9.97333 58.8715 10.5067 59.2661 11.2C59.6608 11.8933 59.8581 12.688 59.8581 13.584C59.8581 14.48 59.6555 15.2747 59.2501 15.968C58.8448 16.6613 58.2901 17.2 57.5861 17.584C56.8928 17.9573 56.1248 18.144 55.2821 18.144ZM55.2821 16.56C55.7515 16.56 56.1888 16.448 56.5941 16.224C57.0101 16 57.3461 15.664 57.6021 15.216C57.8581 14.768 57.9861 14.224 57.9861 13.584C57.9861 12.944 57.8635 12.4053 57.6181 11.968C57.3728 11.52 57.0475 11.184 56.6421 10.96C56.2368 10.736 55.7995 10.624 55.3301 10.624C54.8608 10.624 54.4235 10.736 54.0181 10.96C53.6235 11.184 53.3088 11.52 53.0741 11.968C52.8395 12.4053 52.7221 12.944 52.7221 13.584C52.7221 14.5333 52.9621 15.2693 53.4421 15.792C53.9328 16.304 54.5461 16.56 55.2821 16.56ZM65.0533 9.04C65.7359 9.04 66.3386 9.17867 66.8613 9.456C67.3946 9.72267 67.8106 10.0587 68.1093 10.464V9.184H69.9493V18.144C69.9493 18.9547 69.7786 19.6747 69.4373 20.304C69.0959 20.944 68.5999 21.4453 67.9493 21.808C67.3093 22.1707 66.5413 22.352 65.6453 22.352C64.4506 22.352 63.4586 22.0693 62.6693 21.504C61.8799 20.9493 61.4319 20.192 61.3253 19.232H63.1333C63.2719 19.6907 63.5653 20.0587 64.0133 20.336C64.4719 20.624 65.0159 20.768 65.6453 20.768C66.3813 20.768 66.9733 20.544 67.4213 20.096C67.8799 19.648 68.1093 18.9973 68.1093 18.144V16.672C67.7999 17.088 67.3786 17.44 66.8453 17.728C66.3226 18.0053 65.7253 18.144 65.0533 18.144C64.2853 18.144 63.5813 17.952 62.9413 17.568C62.3119 17.1733 61.8106 16.6293 61.4373 15.936C61.0746 15.232 60.8933 14.4373 60.8933 13.552C60.8933 12.6667 61.0746 11.8827 61.4373 11.2C61.8106 10.5173 62.3119 9.98933 62.9413 9.616C63.5813 9.232 64.2853 9.04 65.0533 9.04ZM68.1093 13.584C68.1093 12.976 67.9813 12.448 67.7253 12C67.4799 11.552 67.1546 11.2107 66.7493 10.976C66.3439 10.7413 65.9066 10.624 65.4373 10.624C64.9679 10.624 64.5306 10.7413 64.1253 10.976C63.7199 11.2 63.3893 11.536 63.1333 11.984C62.8879 12.4213 62.7653 12.944 62.7653 13.552C62.7653 14.16 62.8879 14.6933 63.1333 15.152C63.3893 15.6107 63.7199 15.9627 64.1253 16.208C64.5413 16.4427 64.9786 16.56 65.4373 16.56C65.9066 16.56 66.3439 16.4427 66.7493 16.208C67.1546 15.9733 67.4799 15.632 67.7253 15.184C67.9813 14.7253 68.1093 14.192 68.1093 13.584ZM74.009 6.16V18H72.185V6.16H74.009ZM84.3238 13.376C84.3238 13.7067 84.3024 14.0053 84.2598 14.272H77.5238C77.5771 14.976 77.8384 15.5413 78.3078 15.968C78.7771 16.3947 79.3531 16.608 80.0358 16.608C81.0171 16.608 81.7104 16.1973 82.1158 15.376H84.0838C83.8171 16.1867 83.3318 16.8533 82.6278 17.376C81.9344 17.888 81.0704 18.144 80.0358 18.144C79.1931 18.144 78.4358 17.9573 77.7638 17.584C77.1024 17.2 76.5798 16.6667 76.1958 15.984C75.8224 15.2907 75.6358 14.4907 75.6358 13.584C75.6358 12.6773 75.8171 11.8827 76.1798 11.2C76.5531 10.5067 77.0704 9.97333 77.7318 9.6C78.4038 9.22667 79.1718 9.04 80.0358 9.04C80.8678 9.04 81.6091 9.22133 82.2598 9.584C82.9104 9.94667 83.4171 10.4587 83.7798 11.12C84.1424 11.7707 84.3238 12.5227 84.3238 13.376ZM82.4198 12.8C82.4091 12.128 82.1691 11.5893 81.6998 11.184C81.2304 10.7787 80.6491 10.576 79.9558 10.576C79.3264 10.576 78.7878 10.7787 78.3398 11.184C77.8918 11.5787 77.6251 12.1173 77.5398 12.8H82.4198Z" fill="#333333"/>
<defs>
<clipPath id="clip0_1485_41049">
<rect y="2" width="20" height="20" rx="6" fill="white"/>
</clipPath>
</defs>
</svg>
